<mxfile host="app.diagrams.net" modified="2023-02-11T19:35:36.559Z" agent="5.0 (Macintosh; Intel Mac OS X 10_15_6) AppleWebKit/605.1.15 (KHTML, like Gecko) Version/15.5 Safari/605.1.15" etag="mZA_GTFAoqDAaaiuMLdv" version="20.8.20" type="github" pages="2">
  <diagram name="Page-flow" id="tv-1fRhKRmWAG3hEdSQ7">
    <mxGraphModel dx="787" dy="616" grid="1" gridSize="10" guides="1" tooltips="1" connect="1" arrows="1" fold="1" page="1" pageScale="1" pageWidth="827" pageHeight="1169" math="0" shadow="0">
      <root>
        <mxCell id="0" />
        <mxCell id="1" parent="0" />
        <mxCell id="XF3re5rTB-hsOwSzjU_H-4" style="edgeStyle=orthogonalEdgeStyle;rounded=0;orthogonalLoop=1;jettySize=auto;html=1;" edge="1" parent="1" source="XF3re5rTB-hsOwSzjU_H-2" target="XF3re5rTB-hsOwSzjU_H-3">
          <mxGeometry relative="1" as="geometry" />
        </mxCell>
        <mxCell id="XF3re5rTB-hsOwSzjU_H-2" value="About" style="whiteSpace=wrap;html=1;aspect=fixed;" vertex="1" parent="1">
          <mxGeometry x="250" y="60" width="80" height="80" as="geometry" />
        </mxCell>
        <mxCell id="XF3re5rTB-hsOwSzjU_H-6" style="edgeStyle=orthogonalEdgeStyle;rounded=0;orthogonalLoop=1;jettySize=auto;html=1;" edge="1" parent="1" source="XF3re5rTB-hsOwSzjU_H-3" target="XF3re5rTB-hsOwSzjU_H-5">
          <mxGeometry relative="1" as="geometry">
            <Array as="points">
              <mxPoint x="360" y="240" />
              <mxPoint x="360" y="240" />
            </Array>
          </mxGeometry>
        </mxCell>
        <mxCell id="XF3re5rTB-hsOwSzjU_H-10" style="edgeStyle=orthogonalEdgeStyle;rounded=0;orthogonalLoop=1;jettySize=auto;html=1;" edge="1" parent="1" source="XF3re5rTB-hsOwSzjU_H-3" target="XF3re5rTB-hsOwSzjU_H-9">
          <mxGeometry relative="1" as="geometry" />
        </mxCell>
        <mxCell id="XF3re5rTB-hsOwSzjU_H-3" value="Login" style="whiteSpace=wrap;html=1;aspect=fixed;" vertex="1" parent="1">
          <mxGeometry x="250" y="220" width="80" height="80" as="geometry" />
        </mxCell>
        <mxCell id="XF3re5rTB-hsOwSzjU_H-8" style="edgeStyle=orthogonalEdgeStyle;rounded=0;orthogonalLoop=1;jettySize=auto;html=1;" edge="1" parent="1" source="XF3re5rTB-hsOwSzjU_H-5" target="XF3re5rTB-hsOwSzjU_H-3">
          <mxGeometry relative="1" as="geometry">
            <Array as="points">
              <mxPoint x="370" y="280" />
              <mxPoint x="370" y="280" />
            </Array>
          </mxGeometry>
        </mxCell>
        <mxCell id="XF3re5rTB-hsOwSzjU_H-5" value="Signup" style="whiteSpace=wrap;html=1;aspect=fixed;" vertex="1" parent="1">
          <mxGeometry x="400" y="220" width="80" height="80" as="geometry" />
        </mxCell>
        <mxCell id="XF3re5rTB-hsOwSzjU_H-12" style="edgeStyle=orthogonalEdgeStyle;rounded=0;orthogonalLoop=1;jettySize=auto;html=1;" edge="1" parent="1" source="XF3re5rTB-hsOwSzjU_H-9" target="XF3re5rTB-hsOwSzjU_H-11">
          <mxGeometry relative="1" as="geometry">
            <Array as="points">
              <mxPoint x="370" y="390" />
              <mxPoint x="370" y="390" />
            </Array>
          </mxGeometry>
        </mxCell>
        <mxCell id="XF3re5rTB-hsOwSzjU_H-16" style="edgeStyle=orthogonalEdgeStyle;rounded=0;orthogonalLoop=1;jettySize=auto;html=1;" edge="1" parent="1" source="XF3re5rTB-hsOwSzjU_H-9" target="XF3re5rTB-hsOwSzjU_H-15">
          <mxGeometry relative="1" as="geometry" />
        </mxCell>
        <mxCell id="XF3re5rTB-hsOwSzjU_H-9" value="Home/feed" style="whiteSpace=wrap;html=1;aspect=fixed;" vertex="1" parent="1">
          <mxGeometry x="250" y="370" width="80" height="80" as="geometry" />
        </mxCell>
        <mxCell id="XF3re5rTB-hsOwSzjU_H-13" style="edgeStyle=orthogonalEdgeStyle;rounded=0;orthogonalLoop=1;jettySize=auto;html=1;" edge="1" parent="1" source="XF3re5rTB-hsOwSzjU_H-11" target="XF3re5rTB-hsOwSzjU_H-9">
          <mxGeometry relative="1" as="geometry">
            <Array as="points">
              <mxPoint x="360" y="430" />
              <mxPoint x="360" y="430" />
            </Array>
          </mxGeometry>
        </mxCell>
        <mxCell id="XF3re5rTB-hsOwSzjU_H-11" value="Create post" style="whiteSpace=wrap;html=1;aspect=fixed;" vertex="1" parent="1">
          <mxGeometry x="400" y="370" width="80" height="80" as="geometry" />
        </mxCell>
        <mxCell id="XF3re5rTB-hsOwSzjU_H-15" value="Profile page" style="whiteSpace=wrap;html=1;aspect=fixed;" vertex="1" parent="1">
          <mxGeometry x="110" y="370" width="80" height="80" as="geometry" />
        </mxCell>
      </root>
    </mxGraphModel>
  </diagram>
  <diagram id="KaZuoaODfeQHSQhIOXnh" name="Api">
    <mxGraphModel dx="885" dy="693" grid="1" gridSize="10" guides="1" tooltips="1" connect="1" arrows="1" fold="1" page="1" pageScale="1" pageWidth="827" pageHeight="1169" math="0" shadow="0">
      <root>
        <mxCell id="0" />
        <mxCell id="1" parent="0" />
        <mxCell id="gZDjJ3JF_Iqb5NZqJBhA-4" value="DB" style="rhombus;whiteSpace=wrap;html=1;" vertex="1" parent="1">
          <mxGeometry x="84" y="256" width="80" height="80" as="geometry" />
        </mxCell>
        <mxCell id="gZDjJ3JF_Iqb5NZqJBhA-23" style="edgeStyle=orthogonalEdgeStyle;rounded=0;orthogonalLoop=1;jettySize=auto;html=1;" edge="1" parent="1" source="gZDjJ3JF_Iqb5NZqJBhA-7" target="gZDjJ3JF_Iqb5NZqJBhA-4">
          <mxGeometry relative="1" as="geometry" />
        </mxCell>
        <mxCell id="gZDjJ3JF_Iqb5NZqJBhA-7" value="StorageCommunicator" style="swimlane;fontStyle=0;childLayout=stackLayout;horizontal=1;startSize=30;horizontalStack=0;resizeParent=1;resizeParentMax=0;resizeLast=0;collapsible=1;marginBottom=0;whiteSpace=wrap;html=1;" vertex="1" parent="1">
          <mxGeometry x="224" y="236" width="140" height="120" as="geometry" />
        </mxCell>
        <mxCell id="gZDjJ3JF_Iqb5NZqJBhA-8" value="Item 1" style="text;strokeColor=none;fillColor=none;align=left;verticalAlign=middle;spacingLeft=4;spacingRight=4;overflow=hidden;points=[[0,0.5],[1,0.5]];portConstraint=eastwest;rotatable=0;whiteSpace=wrap;html=1;" vertex="1" parent="gZDjJ3JF_Iqb5NZqJBhA-7">
          <mxGeometry y="30" width="140" height="30" as="geometry" />
        </mxCell>
        <mxCell id="gZDjJ3JF_Iqb5NZqJBhA-9" value="Item 2" style="text;strokeColor=none;fillColor=none;align=left;verticalAlign=middle;spacingLeft=4;spacingRight=4;overflow=hidden;points=[[0,0.5],[1,0.5]];portConstraint=eastwest;rotatable=0;whiteSpace=wrap;html=1;" vertex="1" parent="gZDjJ3JF_Iqb5NZqJBhA-7">
          <mxGeometry y="60" width="140" height="30" as="geometry" />
        </mxCell>
        <mxCell id="gZDjJ3JF_Iqb5NZqJBhA-10" value="Item 3" style="text;strokeColor=none;fillColor=none;align=left;verticalAlign=middle;spacingLeft=4;spacingRight=4;overflow=hidden;points=[[0,0.5],[1,0.5]];portConstraint=eastwest;rotatable=0;whiteSpace=wrap;html=1;" vertex="1" parent="gZDjJ3JF_Iqb5NZqJBhA-7">
          <mxGeometry y="90" width="140" height="30" as="geometry" />
        </mxCell>
        <mxCell id="gZDjJ3JF_Iqb5NZqJBhA-24" style="edgeStyle=orthogonalEdgeStyle;rounded=0;orthogonalLoop=1;jettySize=auto;html=1;exitX=0.5;exitY=0;exitDx=0;exitDy=0;" edge="1" parent="1" source="gZDjJ3JF_Iqb5NZqJBhA-11" target="gZDjJ3JF_Iqb5NZqJBhA-7">
          <mxGeometry relative="1" as="geometry" />
        </mxCell>
        <mxCell id="gZDjJ3JF_Iqb5NZqJBhA-11" value="LoginValidator" style="swimlane;fontStyle=0;childLayout=stackLayout;horizontal=1;startSize=30;horizontalStack=0;resizeParent=1;resizeParentMax=0;resizeLast=0;collapsible=1;marginBottom=0;whiteSpace=wrap;html=1;" vertex="1" parent="1">
          <mxGeometry x="224" y="416" width="140" height="120" as="geometry" />
        </mxCell>
        <mxCell id="gZDjJ3JF_Iqb5NZqJBhA-12" value="Item 1" style="text;strokeColor=none;fillColor=none;align=left;verticalAlign=middle;spacingLeft=4;spacingRight=4;overflow=hidden;points=[[0,0.5],[1,0.5]];portConstraint=eastwest;rotatable=0;whiteSpace=wrap;html=1;" vertex="1" parent="gZDjJ3JF_Iqb5NZqJBhA-11">
          <mxGeometry y="30" width="140" height="30" as="geometry" />
        </mxCell>
        <mxCell id="gZDjJ3JF_Iqb5NZqJBhA-13" value="Item 2" style="text;strokeColor=none;fillColor=none;align=left;verticalAlign=middle;spacingLeft=4;spacingRight=4;overflow=hidden;points=[[0,0.5],[1,0.5]];portConstraint=eastwest;rotatable=0;whiteSpace=wrap;html=1;" vertex="1" parent="gZDjJ3JF_Iqb5NZqJBhA-11">
          <mxGeometry y="60" width="140" height="30" as="geometry" />
        </mxCell>
        <mxCell id="gZDjJ3JF_Iqb5NZqJBhA-14" value="Item 3" style="text;strokeColor=none;fillColor=none;align=left;verticalAlign=middle;spacingLeft=4;spacingRight=4;overflow=hidden;points=[[0,0.5],[1,0.5]];portConstraint=eastwest;rotatable=0;whiteSpace=wrap;html=1;" vertex="1" parent="gZDjJ3JF_Iqb5NZqJBhA-11">
          <mxGeometry y="90" width="140" height="30" as="geometry" />
        </mxCell>
        <mxCell id="gZDjJ3JF_Iqb5NZqJBhA-36" style="edgeStyle=orthogonalEdgeStyle;rounded=0;orthogonalLoop=1;jettySize=auto;html=1;" edge="1" parent="1" source="gZDjJ3JF_Iqb5NZqJBhA-19" target="gZDjJ3JF_Iqb5NZqJBhA-29">
          <mxGeometry relative="1" as="geometry" />
        </mxCell>
        <mxCell id="gZDjJ3JF_Iqb5NZqJBhA-19" value="PostFactory" style="swimlane;fontStyle=0;childLayout=stackLayout;horizontal=1;startSize=30;horizontalStack=0;resizeParent=1;resizeParentMax=0;resizeLast=0;collapsible=1;marginBottom=0;whiteSpace=wrap;html=1;" vertex="1" parent="1">
          <mxGeometry x="424" y="416" width="140" height="120" as="geometry" />
        </mxCell>
        <mxCell id="gZDjJ3JF_Iqb5NZqJBhA-20" value="Item 1" style="text;strokeColor=none;fillColor=none;align=left;verticalAlign=middle;spacingLeft=4;spacingRight=4;overflow=hidden;points=[[0,0.5],[1,0.5]];portConstraint=eastwest;rotatable=0;whiteSpace=wrap;html=1;" vertex="1" parent="gZDjJ3JF_Iqb5NZqJBhA-19">
          <mxGeometry y="30" width="140" height="30" as="geometry" />
        </mxCell>
        <mxCell id="gZDjJ3JF_Iqb5NZqJBhA-21" value="Item 2" style="text;strokeColor=none;fillColor=none;align=left;verticalAlign=middle;spacingLeft=4;spacingRight=4;overflow=hidden;points=[[0,0.5],[1,0.5]];portConstraint=eastwest;rotatable=0;whiteSpace=wrap;html=1;" vertex="1" parent="gZDjJ3JF_Iqb5NZqJBhA-19">
          <mxGeometry y="60" width="140" height="30" as="geometry" />
        </mxCell>
        <mxCell id="gZDjJ3JF_Iqb5NZqJBhA-22" value="Item 3" style="text;strokeColor=none;fillColor=none;align=left;verticalAlign=middle;spacingLeft=4;spacingRight=4;overflow=hidden;points=[[0,0.5],[1,0.5]];portConstraint=eastwest;rotatable=0;whiteSpace=wrap;html=1;" vertex="1" parent="gZDjJ3JF_Iqb5NZqJBhA-19">
          <mxGeometry y="90" width="140" height="30" as="geometry" />
        </mxCell>
        <mxCell id="gZDjJ3JF_Iqb5NZqJBhA-27" style="edgeStyle=orthogonalEdgeStyle;rounded=0;orthogonalLoop=1;jettySize=auto;html=1;" edge="1" parent="1" source="gZDjJ3JF_Iqb5NZqJBhA-26" target="gZDjJ3JF_Iqb5NZqJBhA-11">
          <mxGeometry relative="1" as="geometry" />
        </mxCell>
        <mxCell id="gZDjJ3JF_Iqb5NZqJBhA-28" style="edgeStyle=orthogonalEdgeStyle;rounded=0;orthogonalLoop=1;jettySize=auto;html=1;" edge="1" parent="1" source="gZDjJ3JF_Iqb5NZqJBhA-26" target="gZDjJ3JF_Iqb5NZqJBhA-19">
          <mxGeometry relative="1" as="geometry" />
        </mxCell>
        <mxCell id="gZDjJ3JF_Iqb5NZqJBhA-26" value="API endpoint" style="rhombus;whiteSpace=wrap;html=1;" vertex="1" parent="1">
          <mxGeometry x="354" y="666" width="80" height="80" as="geometry" />
        </mxCell>
        <mxCell id="gZDjJ3JF_Iqb5NZqJBhA-37" style="edgeStyle=orthogonalEdgeStyle;rounded=0;orthogonalLoop=1;jettySize=auto;html=1;" edge="1" parent="1" source="gZDjJ3JF_Iqb5NZqJBhA-29" target="gZDjJ3JF_Iqb5NZqJBhA-7">
          <mxGeometry relative="1" as="geometry">
            <Array as="points">
              <mxPoint x="674" y="296" />
            </Array>
          </mxGeometry>
        </mxCell>
        <mxCell id="gZDjJ3JF_Iqb5NZqJBhA-29" value="PermissionsFilter" style="swimlane;fontStyle=0;childLayout=stackLayout;horizontal=1;startSize=30;horizontalStack=0;resizeParent=1;resizeParentMax=0;resizeLast=0;collapsible=1;marginBottom=0;whiteSpace=wrap;html=1;" vertex="1" parent="1">
          <mxGeometry x="604" y="416" width="140" height="120" as="geometry" />
        </mxCell>
        <mxCell id="gZDjJ3JF_Iqb5NZqJBhA-30" value="Item 1" style="text;strokeColor=none;fillColor=none;align=left;verticalAlign=middle;spacingLeft=4;spacingRight=4;overflow=hidden;points=[[0,0.5],[1,0.5]];portConstraint=eastwest;rotatable=0;whiteSpace=wrap;html=1;" vertex="1" parent="gZDjJ3JF_Iqb5NZqJBhA-29">
          <mxGeometry y="30" width="140" height="30" as="geometry" />
        </mxCell>
        <mxCell id="gZDjJ3JF_Iqb5NZqJBhA-31" value="Item 2" style="text;strokeColor=none;fillColor=none;align=left;verticalAlign=middle;spacingLeft=4;spacingRight=4;overflow=hidden;points=[[0,0.5],[1,0.5]];portConstraint=eastwest;rotatable=0;whiteSpace=wrap;html=1;" vertex="1" parent="gZDjJ3JF_Iqb5NZqJBhA-29">
          <mxGeometry y="60" width="140" height="30" as="geometry" />
        </mxCell>
        <mxCell id="gZDjJ3JF_Iqb5NZqJBhA-32" value="Item 3" style="text;strokeColor=none;fillColor=none;align=left;verticalAlign=middle;spacingLeft=4;spacingRight=4;overflow=hidden;points=[[0,0.5],[1,0.5]];portConstraint=eastwest;rotatable=0;whiteSpace=wrap;html=1;" vertex="1" parent="gZDjJ3JF_Iqb5NZqJBhA-29">
          <mxGeometry y="90" width="140" height="30" as="geometry" />
        </mxCell>
      </root>
    </mxGraphModel>
  </diagram>
</mxfile>
